<?xml version="1.0" encoding="UTF-8" standalone="no"?>
<!-- Created with Inkscape (http://www.inkscape.org/) -->

<svg
   xmlns:dc="http://purl.org/dc/elements/1.1/"
   xmlns:cc="http://creativecommons.org/ns#"
   xmlns:rdf="http://www.w3.org/1999/02/22-rdf-syntax-ns#"
   xmlns:svg="http://www.w3.org/2000/svg"
   xmlns="http://www.w3.org/2000/svg"
   xmlns:sodipodi="http://sodipodi.sourceforge.net/DTD/sodipodi-0.dtd"
   xmlns:inkscape="http://www.inkscape.org/namespaces/inkscape"
   version="1.1"
   id="svg13341"
   xml:space="preserve"
   width="800"
   height="800"
   viewBox="0 0 800 800"
   sodipodi:docname="cameroon-heraldic-lion-flag.svg"
   inkscape:version="0.92.4 (5da689c313, 2019-01-14)"><metadata
     id="metadata13347"><rdf:RDF><cc:Work
         rdf:about=""><dc:format>image/svg+xml</dc:format><dc:type
           rdf:resource="http://purl.org/dc/dcmitype/StillImage" /><dc:title></dc:title></cc:Work></rdf:RDF></metadata><defs
     id="defs13345"><clipPath
       clipPathUnits="userSpaceOnUse"
       id="clipPath13357"><path
         d="M 0,600 H 600 V 0 H 0 Z"
         id="path13355"
         inkscape:connector-curvature="0" /></clipPath></defs><sodipodi:namedview
     pagecolor="#ffffff"
     bordercolor="#666666"
     borderopacity="1"
     objecttolerance="10"
     gridtolerance="10"
     guidetolerance="10"
     inkscape:pageopacity="0"
     inkscape:pageshadow="2"
     inkscape:window-width="1920"
     inkscape:window-height="1018"
     id="namedview13343"
     showgrid="false"
     inkscape:zoom="0.75211712"
     inkscape:cx="540.67797"
     inkscape:cy="337.28814"
     inkscape:window-x="-8"
     inkscape:window-y="-8"
     inkscape:window-maximized="1"
     inkscape:current-layer="g13349" /><g
     id="g13349"
     inkscape:groupmode="layer"
     inkscape:label="Cameroon-flag-lion-publicdomainvectors.org"
     transform="matrix(1.3333333,0,0,-1.3333333,0,800)"><g
       id="g13351"><g
         id="g13353"
         clip-path="url(#clipPath13357)"><path
           d="m 103.212,354.563 c -0.381,-0.271 -0.738,-0.558 -1.106,-0.838 -10.356,3.902 -31.656,3.185 -34.855,-17.289 1.185,2.296 10.23,8.637 14.166,0.51 -7.727,-5.711 -13.987,-16.712 -7.418,-30.899 -0.325,2.892 6.547,19.052 16.35,9.342 l 0.002,0.01 c 3.161,-6.329 9.314,-11.016 18.548,-12.016 -16.291,12.515 5.691,20.616 14.22,12.797 8.528,-7.822 21.323,4.97 21.323,4.97 0,0 10.489,4.542 26.145,6.467 v 27.231 c -20.773,-7.29 -49.128,12.673 -67.375,-0.285"
           style="fill:#19947c;fill-opacity:1;fill-rule:nonzero;stroke:none"
           id="path13359"
           inkscape:connector-curvature="0" /><path
           d="m 129.919,160.411 c -15.532,7.199 -36.416,2.613 -40.336,-14.041 7.844,6.772 15.699,5.928 21.564,3.428 -17.513,-1.621 -32.457,-17.119 -25.254,-33.641 2.385,10.854 10.272,14.385 17.022,15.342 -5.953,-7.393 -4.263,-17.346 4.76,-27.93 -1.489,13.723 8.285,16.293 12.577,16.764 2.518,-1.553 5.435,-3.066 8.78,-4.525 6.769,-1.835 22.308,1.064 41.555,2.537 v 40.02 c -18.436,5.395 -31.82,4.532 -40.668,2.046"
           style="fill:#19947c;fill-opacity:1;fill-rule:nonzero;stroke:none"
           id="path13361"
           inkscape:connector-curvature="0" /><path
           d="m 117.661,454.5 c -3.392,3.156 -12.777,4.56 -22.652,3.096 -9.639,6.406 -28.107,10.447 -37.925,-5.563 1.515,1.272 11.096,0.786 16.216,-3.931 -0.141,-0.131 -0.268,-0.273 -0.405,-0.407 -11.749,0.045 -24.618,-4.716 -26.758,-18.424 1.049,2.036 11.893,6.32 17.799,1.43 -2.844,-6.069 -4.79,-13.98 1.782,-24.619 1.868,14.928 16.4,18.39 45.722,4.528 23.764,-11.232 41.809,-14.884 59.147,-27.214 v 39.555 c -35.115,8.942 -45.959,25.081 -52.926,31.549"
           style="fill:#19947c;fill-opacity:1;fill-rule:nonzero;stroke:none"
           id="path13363"
           inkscape:connector-curvature="0" /><path
           d="m 230.731,322.648 c -4.68,9.725 -14.886,15.927 -14.886,15.927 l -0.002,-0.003 c -11.547,10.258 -25.647,20.298 -32.967,25.502 -3.616,-4.777 -7.774,-7.642 -12.289,-9.226 v -27.231 c 12.97,1.596 29.481,1.398 46.55,-4.684 5.991,-4.533 3.858,-10.477 -4.322,-25.196 -9.58,-17.242 -26.648,-34.461 -21.227,-54.277 0.508,23.881 29.768,46.326 36.809,56.31 3.999,5.668 5.063,11.002 4.469,15.801 0.377,-0.221 0.758,-0.423 1.137,-0.652 -0.178,2.269 -1.371,4.894 -3.272,7.729"
           style="fill:#cb2943;fill-opacity:1;fill-rule:nonzero;stroke:none"
           id="path13365"
           inkscape:connector-curvature="0" /><path
           d="m 346.225,151.634 c -1.927,-0.963 -3.737,-1.946 -5.351,-3.067 -1.02,0.227 -25.27,5.442 -34.132,-11.078 4.249,1.985 10.541,1.666 16.663,-1.158 -6.318,-4.754 -12.66,-11.687 -11.691,-19.992 2.88,4.398 9.013,6.717 16.707,6.631 -4.611,-6.871 -10.562,-18.774 -3.673,-27.155 2.607,13.028 13.773,16.586 28.441,16.493 1.152,-0.93 2.348,-2.186 3.621,-3.897 4.451,-0.393 9.069,-0.336 13.777,0.047 v 42.968 c -8.146,1.92 -16.848,3.966 -24.362,0.208"
           style="fill:#cb2943;fill-opacity:1;fill-rule:nonzero;stroke:none"
           id="path13367"
           inkscape:connector-curvature="0" /><path
           d="m 301.935,293.058 -31.348,22.776 -31.349,-22.776 11.975,36.852 -31.349,22.776 h 38.749 l 11.974,36.853 11.974,-36.853 h 38.749 l -31.349,-22.777 z m 20.796,77.928 c 5.192,-6.584 24.371,-22.654 47.856,-35.302 v 144.652 c -0.465,1.219 -0.68,2.109 -0.582,2.598 0.085,0.423 0.287,0.807 0.582,1.156 v 37.599 c -7.783,3.863 -15.738,7.425 -22.983,11.537 -10.139,5.75 5.166,8.019 22.983,4.568 v 17.307 c -21.611,16.585 -56.561,30.295 -85.074,15.118 0,0 -1.215,-21.934 -16.624,-24.739 6.039,7.295 8.213,20.175 5.012,21.599 -12.074,0 -29.535,-17.325 -36.408,-30.479 l -19.422,-2.483 -16.18,-16.711 c 0,0 -27.712,-0.539 -29.136,-11.368 -1.219,-9.278 12.426,-27.442 16.359,-32.452 0,0 5.155,-7.393 11.938,-9.35 -4.619,6.757 -3.524,9.631 -0.859,12.293 3.751,-2.363 6.921,-1.404 6.921,-1.404 0,0 6.578,2.952 11.513,5.061 l -1.808,-15.373 c -7.73,-2.165 -12.83,0.939 -12.83,0.939 l 2.877,-6.627 c 1.598,-7.995 10.127,-22.391 12.797,-22.391 2.664,0 17.055,10.661 20.787,7.996 3.736,-2.666 58.109,-16.89 48.873,18.653 10.836,-12.788 14.57,-39.797 -47.273,-29.491 -1.659,0.278 -7.538,-17.105 -9.187,-17.122 -23.155,10.009 -45.507,2.075 -60.772,5.796 -0.513,0.125 -1.002,0.257 -1.504,0.385 v -39.555 c 4.056,-2.884 8.073,-6.242 12.115,-10.284 14.795,-11.878 67.346,-36.069 54.016,-70.718 -8.834,-22.975 -41.583,-37.321 -38.384,-76.766 3.199,-39.453 14.237,-81.289 -22.923,-68.77 -1.649,0.556 -3.249,1.046 -4.824,1.507 v -40.02 c 19.407,1.484 42.585,1.517 64.357,-6.223 2.666,6.932 -7.996,25.816 -14.394,31.15 2.664,16.524 9.24,39.709 32.697,46.637 12.9,3.811 22.042,20.844 29.578,35.139 14.619,-4.291 32.828,-10.207 50.433,-17.582 9.761,-4.092 19.312,-8.658 27.817,-13.664 3.367,-1.977 6.555,-4.042 9.512,-6.174 v 7.241 c -1.812,1.559 -3.697,3.096 -5.65,4.603 -8.154,6.304 -17.386,12.242 -26.851,17.701 -15.996,9.213 -32.61,17.144 -46.448,23.262 2.611,3.646 5.111,5.798 7.636,5.449 31.432,-15.125 55.001,-28.628 71.313,-40.754 v 118.589 c -27.033,15.749 -45.292,36.002 -47.856,47.267"
           style="fill:#cb2943;fill-opacity:1;fill-rule:nonzero;stroke:none"
           id="path13369"
           inkscape:connector-curvature="0" /><path
           d="m 464.896,334.305 c -63.971,-8.455 -86.219,55.877 -89.073,64.402 0,0 23.676,6.217 48.546,-28.609 6.715,14.56 -47.469,93.698 -53.782,110.238 V 335.684 c 31.449,-16.938 70.624,-27.737 94.309,-1.379"
           style="fill:#f8cd1a;fill-opacity:1;fill-rule:nonzero;stroke:none"
           id="path13371"
           inkscape:connector-curvature="0" /><path
           d="m 382.184,177.44 c 2.561,-2.925 4.53,-5.929 5.772,-8.828 1.256,-2.892 1.752,-5.662 1.767,-7.955 0.038,-0.576 0.013,-1.121 -0.044,-1.631 -0.051,-0.511 -0.064,-1 -0.138,-1.443 -0.186,-0.879 -0.286,-1.65 -0.469,-2.25 -0.368,-1.201 -0.561,-1.844 -0.561,-1.844 0,0 0.275,0.615 0.792,1.768 0.261,0.58 0.46,1.338 0.761,2.215 0.136,0.443 0.209,0.937 0.329,1.457 0.127,0.521 0.221,1.08 0.261,1.681 0.286,2.385 0.144,5.397 -0.811,8.668 -0.938,3.274 -2.643,6.77 -4.976,10.231 -3.592,5.247 -8.539,10.42 -14.28,15.36 v -7.241 c 4.508,-3.251 8.466,-6.663 11.597,-10.188"
           style="fill:#f8cd1a;fill-opacity:1;fill-rule:nonzero;stroke:none"
           id="path13373"
           inkscape:connector-curvature="0" /><path
           d="m 553.38,425.713 c -2.49,1.066 7.063,6.175 13.462,5.824 -7.812,6.394 -17.365,11.422 -32.652,8.397 -94.895,109.462 -167.743,-0.01 -94.175,-53.319 69.315,-50.226 20.627,-112.745 -41.418,-112.669 9.016,9.602 22.69,24.236 27.199,29.437 -20.493,3.415 -39.358,11.101 -55.209,20.336 V 205.13 c 28.157,-20.933 34.667,-37.757 22.514,-51.707 -5.282,-6.068 -13.561,-4.109 -22.514,-1.997 v -42.968 c 32.24,2.62 68.725,20.649 85.238,15.881 -1.866,21.322 -24.616,26.922 -25.321,29.053 5.008,19.199 1.03,45.287 -9.431,68.882 0.785,0.282 1.587,0.569 2.403,0.873 3.432,1.319 7.129,2.764 10.94,4.547 3.823,1.729 7.775,3.746 11.763,5.996 1.982,1.155 4.001,2.301 5.975,3.602 2.007,1.234 3.965,2.607 5.928,3.994 1.976,1.363 3.856,2.918 5.782,4.387 1.837,1.611 3.758,3.103 5.508,4.818 l 2.649,2.524 c 0.881,0.834 1.683,1.765 2.522,2.638 0.815,0.899 1.678,1.744 2.448,2.68 0.767,0.93 1.532,1.857 2.297,2.781 l 1.136,1.381 1.045,1.447 c 0.693,0.961 1.381,1.916 2.064,2.866 1.328,1.925 2.483,3.937 3.689,5.843 1.066,2.002 2.107,3.969 3.086,5.901 0.857,1.988 1.694,3.937 2.508,5.83 0.667,1.943 1.318,3.832 1.947,5.66 0.554,1.845 0.97,3.663 1.427,5.378 0.504,1.706 0.72,3.404 1.02,4.991 0.249,1.599 0.616,3.082 0.72,4.519 0.139,1.427 0.272,2.763 0.394,3.998 0.116,1.231 0.256,2.356 0.243,3.385 0.093,4.089 0.146,6.425 0.146,6.425 0,0 -0.347,-2.302 -0.952,-6.332 -0.116,-1.008 -0.4,-2.103 -0.67,-3.297 -0.274,-1.189 -0.564,-2.474 -0.879,-3.849 -0.277,-1.378 -0.826,-2.787 -1.262,-4.297 -0.487,-1.498 -0.897,-3.096 -1.594,-4.678 -0.656,-1.592 -1.264,-3.271 -2.019,-4.955 -0.812,-1.651 -1.653,-3.356 -2.519,-5.112 -0.99,-1.678 -2.005,-3.399 -3.047,-5.16 -1.164,-1.666 -2.351,-3.371 -3.561,-5.106 -1.356,-1.627 -2.639,-3.332 -4.083,-4.943 -0.739,-0.787 -1.48,-1.582 -2.226,-2.379 l -1.118,-1.197 -1.203,-1.129 c -0.803,-0.75 -1.606,-1.506 -2.411,-2.262 -0.802,-0.758 -1.696,-1.428 -2.54,-2.148 -0.865,-0.696 -1.683,-1.442 -2.586,-2.096 l -2.691,-1.979 c -1.766,-1.345 -3.706,-2.474 -5.529,-3.715 -1.928,-1.105 -3.779,-2.287 -5.729,-3.289 -1.938,-1.025 -3.851,-2.037 -5.812,-2.919 -1.921,-0.946 -3.89,-1.747 -5.805,-2.559 -3.862,-1.568 -7.652,-2.932 -11.307,-4.051 -3.633,-1.166 -7.145,-2.041 -10.374,-2.832 -1.926,-0.447 -3.749,-0.83 -5.483,-1.168 -1.273,2.131 -2.607,4.215 -3.991,6.252 64.555,2.639 126.462,89.864 52.011,144.509 -73.246,53.755 -13.514,136.342 65.387,46.072 -10.789,-9.247 -8.532,-30.435 -3.189,-33.635 -0.219,9.37 8.005,11.555 8.005,11.555 0,0 2.834,-37.678 20.073,-45.676 -1.418,10.491 4.263,16.17 4.263,16.17 0,0 27.722,-17.402 26.301,-46.739 15.407,20.368 -6.518,68.196 -6.518,68.196 0,0 5.446,-1.023 15.044,-8.304 -8.704,29.679 -30.92,29.313 -37.319,30.027"
           style="fill:#f8cd1a;fill-opacity:1;fill-rule:nonzero;stroke:none"
           id="path13375"
           inkscape:connector-curvature="0" /><path
           d="m 390.52,531.361 c -1.685,6.477 -9.152,15.466 -19.933,23.74 v -17.307 c 6.695,-1.297 13.744,-3.4 19.933,-6.433"
           style="fill:#f8cd1a;fill-opacity:1;fill-rule:nonzero;stroke:none"
           id="path13377"
           inkscape:connector-curvature="0" /><path
           d="m 412.374,466.988 c -1.034,31.643 -20.776,44.274 -41.787,54.701 V 484.09 c 4.654,5.509 34.023,1.544 41.787,-17.102"
           style="fill:#f8cd1a;fill-opacity:1;fill-rule:nonzero;stroke:none"
           id="path13379"
           inkscape:connector-curvature="0" /><path
           d="m 270.587,389.539 -11.974,-36.853 h 6.423 z"
           style="fill:#f8cd1a;fill-opacity:1;fill-rule:nonzero;stroke:none"
           id="path13381"
           inkscape:connector-curvature="0" /><path
           d="m 267.977,352.686 h 5.219 9.365 l -11.974,36.853 -5.551,-36.853 z"
           style="fill:#f8cd1a;fill-opacity:1;fill-rule:nonzero;stroke:none"
           id="path13383"
           inkscape:connector-curvature="0" /><path
           d="m 273.196,352.686 v -7.996 l 0.373,0.063 0.893,1.227 0.516,-0.994 46.332,7.7 h -38.749 z"
           style="fill:#f8cd1a;fill-opacity:1;fill-rule:nonzero;stroke:none"
           id="path13385"
           inkscape:connector-curvature="0" /><path
           d="m 274.978,344.986 0.829,-1.596 2.88,-0.479 -1.265,-1.74 8.032,2.61 4.507,-13.872 31.349,22.777 z"
           style="fill:#f8cd1a;fill-opacity:1;fill-rule:nonzero;stroke:none"
           id="path13387"
           inkscape:connector-curvature="0" /><path
           d="m 273.196,344.69 v -0.452 l 0.373,0.515 z"
           style="fill:#f8cd1a;fill-opacity:1;fill-rule:nonzero;stroke:none"
           id="path13389"
           inkscape:connector-curvature="0" /><path
           d="m 285.454,343.781 -8.032,-2.61 -0.271,-0.372 2.488,-4.79 1.442,-0.469 -0.785,-0.798 21.639,-41.684 -11.974,36.851 z"
           style="fill:#f8cd1a;fill-opacity:1;fill-rule:nonzero;stroke:none"
           id="path13391"
           inkscape:connector-curvature="0" /><path
           d="m 273.569,344.753 -0.373,-0.515 v -0.415 l 2.611,-0.433 -0.829,1.596 -0.516,0.994 z"
           style="fill:#f8cd1a;fill-opacity:1;fill-rule:nonzero;stroke:none"
           id="path13393"
           inkscape:connector-curvature="0" /><path
           d="m 280.296,334.742 -3.119,-3.166 5.209,-7.17 -11.799,-8.572 31.348,-22.776 z"
           style="fill:#f8cd1a;fill-opacity:1;fill-rule:nonzero;stroke:none"
           id="path13395"
           inkscape:connector-curvature="0" /><path
           d="m 279.639,336.009 -2.488,4.79 -2.34,-3.222 z"
           style="fill:#f8cd1a;fill-opacity:1;fill-rule:nonzero;stroke:none"
           id="path13397"
           inkscape:connector-curvature="0" /><path
           d="m 282.386,324.406 -5.209,7.17 -3.981,-4.041 v -1.515 l -1,0.5 -32.958,-33.462 31.349,22.776 z"
           style="fill:#f8cd1a;fill-opacity:1;fill-rule:nonzero;stroke:none"
           id="path13399"
           inkscape:connector-curvature="0" /><path
           d="m 274.811,337.577 -1.615,-2.222 v -7.82 l 3.981,4.041 3.119,3.166 0.785,0.798 -1.442,0.469 z"
           style="fill:#f8cd1a;fill-opacity:1;fill-rule:nonzero;stroke:none"
           id="path13401"
           inkscape:connector-curvature="0" /><path
           d="m 272.196,326.52 -3.975,1.988 -5.21,-7.17 -11.798,8.572 -11.975,-36.852 z"
           style="fill:#f8cd1a;fill-opacity:1;fill-rule:nonzero;stroke:none"
           id="path13403"
           inkscape:connector-curvature="0" /><path
           d="m 273.196,335.355 1.615,2.222 2.34,3.222 0.271,0.372 1.265,1.74 -2.88,0.479 -2.611,0.433 z"
           style="fill:#f8cd1a;fill-opacity:1;fill-rule:nonzero;stroke:none"
           id="path13405"
           inkscape:connector-curvature="0" /><path
           d="m 263.011,321.338 5.21,7.17 -48.357,24.178 31.349,-22.776 z"
           style="fill:#f8cd1a;fill-opacity:1;fill-rule:nonzero;stroke:none"
           id="path13407"
           inkscape:connector-curvature="0" /><path
           d="m 268.221,328.508 3.975,-1.988 1,-0.5 v 1.515 7.82 8.468 0.415 0.452 7.996 h -5.219 -2.941 -6.423 -38.749 z"
           style="fill:#f8cd1a;fill-opacity:1;fill-rule:nonzero;stroke:none"
           id="path13409"
           inkscape:connector-curvature="0" /></g></g></g></svg>