<?xml version="1.0" encoding="utf-8"?>

<!DOCTYPE svg PUBLIC "-//W3C//DTD SVG 1.1//EN" "http://www.w3.org/Graphics/SVG/1.1/DTD/svg11.dtd">
<svg version="1.1" id="Layer_1" xmlns="http://www.w3.org/2000/svg" xmlns:xlink="http://www.w3.org/1999/xlink" x="0px" y="0px"
	 viewBox="0 0 1114 1671.196" enable-background="new 0 0 1114 1671.196" xml:space="preserve">
<g>
	<g>
		<path fill="#007A5E" d="M374.731,930.772c-2.874,0-4.954,4.463-7.728,2.8c-2.844-1.705-9.452,1.793-9.452-4.885
			c0-1.675,1.746-5.374-0.594-5.599c-2.79-0.268-3.132-4.328-5.766-4.765c-2.694-0.845-6.084-3.675-5.944-6.612
			c0.117-2.446,0.905-4.876,1.07-7.327c0.122-1.813,1.763-4.394,0.059-5.6c-1.132-0.802-3.102-2.327-4.339-2.8
			c-1.923-0.734-4.4,2.383-5.766-0.893c-0.576-1.382-1.294-1.617-2.616-2.204c-2.31-1.025-2.8-2.169-4.577-3.813
			c-2.44-3.405-2.498-5.789-6.836-5.004c-2.088,0.378-3.937-2.107-5.825-2.8c-4.542-1.664,1.172-3.9-0.951-7.506
			c-0.492-0.835-4.137-5.54-4.934-5.54c0,2.91-1.664,5.724-1.664,8.816c0,5.244-0.541,10.551-1.189,15.726
			c-0.662,5.294,0.01,7.999-5.944,8.816c-1.603,2.596-2.786,3.812-4.696,1.132c-5.581-0.703-12.851,0.203-18.547,0.596
			c-4.862,0.335-9.88,0.643-14.564,2.025c-3.596,1.061-1.919,0.131-3.686-1.966c-2.991-3.551-3.108-4.138-2.913-8.221
			c0.068-1.427-0.665-2.098-1.605-3.038c-1.568-1.568,0.416-1.281,0.416-2.74c-1.033-0.624-2.734-0.541-2.734-2.264
			c0-0.687-0.588-3.939-1.724-1.668c-0.121,0.03-0.208,0.117-0.238,0.238l-27.404,25.555l-5.469,5.838
			c-3.353,2.586-11.417,3.167-15.396,1.787c-3.186-1.105-3.485,5.131-4.042,7.148c-0.461,1.667-2.495,4.15-1.487,5.718
			c2.785,4.328-1.248,3.315-1.248,7.506c0,3.915-2.176,7.456-3.923,10.961c0.06,2.504-0.108,4.374-0.832,6.731
			c-0.623,2.027-0.671,2.795-3.15,1.847c-1.297-0.496-2.825,1.297-3.329-0.536c-1.288-4.691-1.663,1.191-5.112-0.178
			c-1.157-0.459-2.875-2.308-4.102-2.026c-1.992,0.458-0.532,5.281-1.07,6.433c-0.86,1.84-6.25,5.005-8.144,6.017l-8.441-2.085
			l-4.874,19.837l-11.651-5.599c-0.577,1.429-1.461,2.466-2.021,3.872c-0.507,1.271-0.06,2.455-0.297,3.693
			c-0.283,1.484-2.123,3.106-2.913,4.468c-1.136,1.958-2.968,3.923-4.28,5.897c-1.674,8.634-4.711,4.961-10.402,8.28
			c-6.835,3.986-7.291,9.658-13.257,15.011l-21.638,19.419c-0.855,2.311-4.721,0.055-5.052,1.728
			c-0.365,1.839-0.573,3.954-2.259,5.123c-3.02,2.093-5.621,1.449-6.42,6.017c-0.488,2.792,3.196,3.274,2.318,6.314
			c-0.338,1.169-1.51,2.753-1.13,3.991c1.061,3.451-0.207,2.898-2.14,5.54c-2.305,3.15-0.449,3.99,1.011,6.91
			c2.019,3.178,6.018,4.978,7.668,8.161c0.714,1.378,0.751,3.117,1.724,4.349c0.299,0.378-1.718,2.12-2.081,2.859
			c-1.181,2.406-3.352,4.537-4.577,7.089c-0.629,1.31-1.19,2.078-1.308,3.574c-0.132,1.667-1.21,1.3-2.378,1.847
			c-1.35,1.605-3.07,3.806-3.21,6.017c-0.306,4.835,4.438,2.47,2.14,7.625c-2.423,5.434-3.923,11.814-3.923,17.751
			c0,2.158,2.054,5.6,1.308,7.386c-1.121,2.682-2.836,5.049-4.279,7.625c-1.589,4.322-5.799,1.625-6.777,4.528
			c-0.857,2.546-3.801,10.964-6.48,11.973c-2.58,0.973-0.367,1.65,0.119,3.097c0.115,0.343-4.762,3.109-5.707,5.004
			c-0.907,1.817,0.596,4.077-1.367,5.362c-1.732,1.133-2.903-0.18-4.756,1.906c-3.881,4.369,3.133,11.208-6.857,12.81
			c0.215-0.17-1.612,5.847-1.338,9.755c0.17,2.423,2.943,5.587-0.446,6.627c-2.23,0.684-7.364,6.574-5.945,9.158
			c0.477,0.867,0.107,5.568,1.412,4.915c1.633-0.818,4.48-2.872,6.093-3.276c-2.077,2.77-3.43,6.213-6.762,7.372
			c-3.584,1.247-1.113,4.939,0.669,7.223c2.621,3.359,3.216-0.112,5.945,2.83c2.052,2.213,20.237,0.944,22.291-1.862
			c0.171-0.234,4.3-2.403,1.709-2.01c-6.116,0.929-1.314-1.892,1.189-3.202c4.912-2.571,1.29,1.443,5.276,0.447
			c1.732-0.433,4.822-3.502,4.979-3.276c1.75,2.516,4.148,4.172,6.911,5.733c3.378,1.909,2.303,4.471,2.303,8.34
			c-1.576,4.862,0.161,8.806,3.196,12.361c1.291,1.514,1.836,5.208,1.338,7.148c-1.278,4.975,2.932,8.88,6.687,11.244
			c5.824,3.666,4.93,6.6,4.532,12.956c-2.385,10.119,9.518,9.112,12.855,14.52c2.253,3.651,4.721,4.008,8.619,3.202l4.682-0.968
			c0.411-0.085,3.07-0.5,3.12-0.298c0.183,0.046,0.398,3.981,0.669,4.766c0.643,1.862,0.084,4.045,0.668,5.808
			c3.364,0,5.619,3.703,7.207-2.755c0.68-0.136,1.843-0.152,2.007-0.968c0.3-0.075,1.236-2.198,1.338-2.606
			c0.203-0.051,0.177-0.117,0.371-0.149c0.198-0.805,1.297-0.435,1.709-0.298v0.819c-8.054,2.013,8.773,13.2,11.368,13.85
			c3.304,0,6.334,1.193,9.362-0.596c2.186-1.291,2.61-2.782,0-3.947c-3.23-1.441-0.265-2.177,0.298-4.765
			c0.317-1.457-0.293-3.586-0.595-5.063c-0.4-1.959,3.165,5.53,3.493,6.851c1.036,4.182,8.835-3.929,10.699-5.51
			c2.651-2.249,7.284-4.935,10.849-5.138c3.306-0.188,5.868-0.948,6.688-4.393c0.377-1.583,4.523-5.41,3.27-3.127
			c-1.017,1.85-2.255,4.932-3.641,6.403l-6.241,6.627c-5.753,6.108,4.687,5.326,8.767,6.031c4.806,0.83,10.796-5.164,14.193-2.606
			c-2.88,0.723-3.305,1.268-5.648,2.83c-2.964,1.975-9.858,2.308-13.449,2.308c-2.464,0-6.742,7.209-8.47,9.159
			c-0.323,1.265-1.13,7.469-1.857,8.116c-1.264,1.123-4.248-2.904-5.648-2.904c0,0.934,4.564,7.721,5.425,8.265
			c5.341,3.372,4.501,8.677,6.018,13.626c1.226,4,2.584,8.251,1.412,12.584c-1.066,4.156,2.208,0.299,4.384-0.372
			c2.159-0.665,4.617-2.105,6.613-2.606c-2.178,1.641-2.915,4.409-6.018,5.212c-1.041,0.27-5.106,1.123-3.864,1.936
			c8.012,5.245,18.938,13.88,24.594,21.668l8.545,11.765c2.353,3.239,2.12,8.569,3.864,12.51
			c5.601,7.808,11.571,21.984,2.452,29.263c-3.79,3.025-5.373,7.401-4.384,12.137c0.636,3.044-1.652,3.962-2.452,6.553
			c-0.864,2.794,1.151,4.796,0.223,7.818c0.225,3.713-2.217,9.322-3.716,12.733c-2.421,5.515-2.51,11.92-4.235,17.573
			c-2.321,7.603-0.949,14.419-2.081,22.041c0.747,2.593,1.648,7.523,1.115,10.201c2.651,1.292,2.18,3.127,2.417,4.784
			c-0.534,2.754-1.628,6.686,0.846,9.001c1.889,1.766,4.393,2.206,6.064,3.753c1.618,1.499-0.079,3.564,2.972,2.978
			c1.049-0.201,2.48,0.624,3.21,1.251c1.661,1.427,3.641,0.962,5.647,1.787c0.667,0.274,1.09,1.075,1.902,1.311
			c1.169,0.338,3.403,0.357,4.637,0.357l85.066-0.179l59.319-0.073V932.078C377.719,931.259,375.997,930.772,374.731,930.772z"/>
		<path fill="#CE1126" d="M733.181,367.491c-1.41,0.787,1.541,3.318-3.27,5.302c-0.761,0.442-2.674,0.653-2.377,1.846
			c0.162,0.654,1.189,0.992,1.189,1.787c0,0.15-2.011,1.664-2.259,3.038c-0.225,1.244,0.356,2.98,0.356,4.289
			c-2.965,0-1.77,0.764-1.188,2.86c0.888,3.204-0.646,5.936,1.604,8.935c1.93,2.57,0.06,4.162-2.854,4.051
			c-1.246-0.047-3.474-1.61-3.329,0.953c0.043,0.756,1.573,2.526,0.357,2.978c-3.997,1.484-2.675,8.074-2.675,11.438
			c3.394,4.896,3.337,7.264,1.307,12.688l-1.961,5.242c-0.662,1.769-1.869,1.667-2.675,2.978c-0.875,1.423,1.119,4.548-0.119,7.029
			c-0.989,1.982-3.035-0.09-3.923,2.8c-0.98,3.186-6.044,3.066-5.885,3.991c0.282,1.636,1.771,3.361-0.119,4.706
			c-2.152,1.531-2.067-1.559-2.972-1.787c-0.715,1.187,1.289,3.157-2.14,3.157c-2.249,0-0.747-0.747-3.21,0.238
			c-2.277,0.911-2.924-2.085-5.291-0.595c-2.033,1.281-3.553,2.256-4.161,4.705c1.646,3.963-1.609,4.093-4.161,5.302
			c-3.302,1.564-0.821,1.196-1.308,4.11c-0.651,3.903,1.184,1.587,3.091,3.395c2.252,2.133-0.091,6.211-2.08,7.327
			c-3.252,1.824-3.27,2.055-3.27,5.897c0,5.356,3.295,5.728,7.253,8.697c1.081,0.811-4.755,8.722-4.755,11.497
			c0.562,2.199-0.945,4.089-0.833,6.553c0.097,2.137-2.674,0.925-1.842,4.17c0.681,2.657-1.13,7.296-1.13,10.424
			c0,4.573-2.125,5.242-5.885,5.242c-0.868,0-3.194,3.664-4.577,4.349c-1.795,0.887-3.725,0.419-5.706,0.357
			c-2.581-0.081-2.999,2.41-5.588,1.966c-2.926-0.503-5.051,1.171-7.311,2.68c-1.592,2.067-4.884,1.597-6.598,3.574
			c-2.791,3.219-3.442,6.852-8.025,8.161c-3.61,1.031-6.938,3.857-8.907,6.931c2.321,1.842,4.628,0.071,7.346,1.213
			c1.256,0.528,2.179,1.196,3.085,1.877l-2.029,3.728c0.783,1.725,0.921,5.018,0.921,6.981c0,1.667-0.91,2.513-1.902,3.753
			c-0.381,0.475-0.43,2.905-0.594,3.693c-0.29,1.391-1.648,1.907-2.2,3.157c-0.133,0.301,1.235,1.668,1.367,2.323
			c0.152,0.747-1.254,1.656-1.427,2.562c-0.264,1.383,2.106,1.693,1.486,4.11c-0.566,2.21-0.358,6.162-1.189,7.923
			c-1.85,3.921-3.008,6.196-6.063,9.531c-0.859,1.275-2.353,1.914-2.794,3.336c-0.47,1.514-2.005,5.081-2.08,6.493
			c-0.126,2.346,1.056,2.182,0.178,4.825c-0.38,1.144-0.403,2.867-0.773,4.229c-0.394,1.454,2.102,2.832,1.546,4.17
			c-1.259,3.027-0.559,5.042-2.794,7.684c-0.652,0.771-1.884,5.459-2.853,4.944c-0.61-0.324-0.979-2.417-1.962-2.859
			c-1.176-0.53-4.047-0.13-5.35,0.06c-3.48,0.507-0.737,10.581-3.626,12.748c-0.137,0.693-0.23,1.005-0.713,1.489
			c-0.425,0.425-1.004,1.198-1.605,1.072c-0.41-0.086-0.822-0.288-1.248-0.298c-0.764-0.018-1.246,0.075-1.961,0.298
			c-2.247,0.633-1.544,1.777-4.221,1.37c-4.166-0.634-1.343,4.096-1.427,5.48c-0.211,3.493-5.216,0.436-6.241-0.179
			c-3.463-2.077-4.433-6.461-9.273-5.718c-1.795,0.276-2.805,1.825-4.518,2.323c-1.562,0.455-3.514,0.321-5.172,0.656
			c0,0.674,1.973,2.033,2.2,3.216c0.546,2.849-0.46,3.662,1.129,6.672c2.836,5.374-5.751,6.142-7.074,8.519
			c-1.394,2.507-5.261,1.393-8.144,4.289c-1.761,1.768-0.837,4.646-3.15,4.646c-1.949,0-7.262-5.826-8.441-1.966
			c-1.211,3.962-2.318,8.261-2.318,12.509l1.011,24.84l-8.025,9.055l1.902,16.858c-1.483,2.806-1.248,1.829-1.248,4.706
			c0,3.1-9.488,11.969-11.591,14.594c-2.086,2.605-4.646,5.211-6.361,7.982c-1.395,2.256-0.194,4.659-1.843,6.612
			c-0.26,2.224-2.853,2.856-3.21,5.659c-0.323,2.53-2.203,2.926-4.161,3.574c0,1.054,0.392,5.53,0.951,6.136
			c1.137,1.23-0.107,3.909-0.416,5.361c-0.452,2.12,1.696,2.908,1.307,4.17c-0.706,2.29,2.187,6.203,0.595,6.672
			c-2.538,0.747-2.434,3.001-5.529,2.86c-1.625-0.074-5.946,3.773-7.668,4.587c-2.95,1.395-0.051,1.152,0.297,2.621
			c0.269,1.137-0.772,4.176-0.772,5.659c2.44,2.754-2.055,4.781-4.637,5.718c-2.341,0.851,0.666,4.462-0.059,5.54
			c-0.913,1.357-1.81,0.88-2.2,2.8c-0.479,2.357-3.298,3.661-3.388,5.242c-0.216,3.775,2.241,2.211,4.577,2.8
			c0,0.657-2.483,3.017-2.794,4.586c-0.196,0.988-0.884,3.26,0,3.872c1.422,0.986-0.221,1.236-0.713,2.085
			c-1.51,2.606,3.745,7.998,3.745,10.96c-0.549,3.528-3.065,2.227-4.518,0.774c-1.248-1.248-1.179,3.055-2.913,3.276
			c-1.464,0.187-3.154-4.237-3.864-2.561c-1.247,2.945-2.886,7.781-6.479,5.957c-3.606-1.832-10.563,3.841-12.959,7.029
			c-1.174,1.561-2.948-0.66-3.983,0.775c-1.085,1.505-0.773,2.181-0.773,3.991c0,1.813-2.557,1.3-2.557,3.038
			c0,4.97-1.324,2.9-4.636,5.302c-7.686,5.571,8.579,10.563,0.357,16.62c0.896,1.797,3.899,6.083,0.119,7.029
			c-3.864,0.966-2.608,1.023-2.497,4.587c0.088,2.797,0.755,4.416-2.14,5.42c-1.741,0.604-2.14,2.478-2.14,4.11
			c0,1.846-1.948,2.637-3.447,3.157c-1.769,0.613-2.216,0.434-3.626-0.774c-0.617-0.529-5.04,1.894-6.479,2.085
			c-3.041,0.404-1.424,0.162,0.238,2.74c1.058,1.642,0.541,1.959-0.535,3.038c-1.578,1.583,1.803,3.276-2.14,3.276
			c-3.125,0-3.802-0.344-6.777,0.893c-1.232,3.61-1.781,1.906-4.875,1.906c-1.64,0-2.497-1.218-3.507-2.681
			c-1.526-2.208-2.495-1.353-4.28,0.238c-1.812,1.617-2.617,0.626-3.863-0.477c-1.524-1.349-7.41-2.234-6.837,0.655
			c0.601,3.026-1.386,2.777-3.507,2.681c-2.342-0.107-1.899,1.296-3.329-0.893c-0.484-0.742,0.362-2.938-1.486-1.906
			c-1.004,0.56-3.053,2.28-4.339,1.787c-1.659-0.636-0.392-3.473-0.654-4.706c0-5.489,0.106-12.198-0.714-17.573
			c-0.241-1.583-1.718-2.945-3.453-3.876v629.334l37.813-0.046l1.545-2.859c0.408-2.323-1.451-4.314,0.356-6.493
			c0.507-0.611,1.729-0.734,2.081-1.31c0.175-0.286,0.214-0.772,0.298-1.132c0.158-0.681,0.596-1.373,0.654-2.085l-0.271-3.379
			c4.605-1.757,17.263-1.25,20.321-1.857c4.528-0.899,7.754,0.356,12.037,0.223c4.934-0.153,8.546-2.938,10.203-1.831
			c0.97,0.201,1.963,0.317,2.912,0.603c1.755,0.53,0.87,1.907,3.084,2.233c2.534,0.374,2.503,3.101,5.313,2.904
			c4.248-0.298,8.513-0.408,12.743-0.893c9.408-1.08,19.545,0.587,28.979,0.223c1.367-0.053,2.274,0.331,3.418-0.111
			c5.156-1.995,6.167,1.737,10.774,0.372c4.439-1.314,4.98-0.991,9.214-0.224c3.484,0.631,14.21-5.498,14.712-3.202
			c1.311,5.998,12.678,2.855,16.495,1.117c3.373-1.536,5.917,3.148,10.254,2.159c5.2-1.185,5.162,3.08,9.437,3.425
			c3.988,0.322,7.975,0.646,11.963,0.968c8.47,0.685,8.927,5.032,17.164-1.489c3.221-2.55,4.063,4.387,7.282,2.159
			c2.885-1.997,9.871-0.68,13.375-0.298c2.528,0.276,6.205-2.103,8.396-0.075c2.435,2.255,5.37,1.011,8.471,0.223
			c2.827-0.718,9.737-9.155,13.301-4.319c1.589,2.156,1.62,2.903,4.458,1.638c5.31-2.366,11.072,2.192,11.072,7.446
			c0,2.335-0.567,4.26-0.148,6.702l47.81,0.294V365.867C734.107,366.663,733.49,367.319,733.181,367.491z"/>
		<path fill="#FCD116" d="M1084.104,1546.122c0-2.413-2.318-10.845-4.236-12.286c-3.095-2.326-2.476-4.966-4.682-7.893
			c-0.786-1.044-3.097-3.337-3.195-4.617c-0.136-1.787,1.714-4.5,1.337-5.733c-0.89-2.91-2.692-2.183-1.635-6.031
			c1.428-5.199,1.661-7.076,0.149-11.989c-0.986-3.2-0.662-5.78,1.041-8.563c1.089-1.78-1.024-1.817-0.372-3.276l-3.232-2.999
			c0.256-1.881,0.354-2.829-0.297-4.587c-1.306-3.529-1.204-3.106,2.497-4.885c4.971-2.391,0.858-6.453,0.713-10.424
			c-0.055-1.509,0.094-2.848-1.07-3.931c-2.113-1.968-2.904-3.866-4.28-6.374c0.081-1.408-0.059-3.186-1.724-3.276
			c-2.054-0.111-2.466-0.361-2.853-2.263c-0.795-3.899-2.913-0.134-4.339,0.536c-0.958,0.449-6.559-6.456-7.609-7.565
			c-1.374-1.45-2.425-2.772-3.27-4.587c-1.025-2.2-3.048-2.703-4.993-3.753l-7.668,1.012l-78.053-85.362l-23.54-41.698l13.968-4.649
			c-2.187-1.989-1.242-5.588-5.769-8.274c-3.068-1.82-5.094-2.919-4.086-7.148c0.147-0.62-0.286-6.501-0.594-7.148
			c-0.617-1.295-1.658-3.217-0.966-4.691c1.612-3.429-0.668-2.723-0.668-6.329c0-4.276-5.499-4.201-5.499-8.414
			c0-0.698,0.413-2.203-0.446-2.531c-1.681-0.642-1.632,0.18-2.303-2.011c-1.292-4.216-3.131-5.672-7.208-7.222
			c-2.368-0.9-8.68-2.742-10.402-4.468c-1.211-1.214-4.81-3.532-5.276-4.245c-0.973-1.491-0.877-1.628-2.452-2.681
			c-1.292-0.863-3.258-0.172-4.31-1.34c-2.997-3.326-5.994-6.653-8.99-9.978c-3.69-4.095-3.418-12.942-3.418-18.765
			c0-2.558-2.068-1.617-1.783-4.17c0.205-1.842,1.264-2.409,0.743-4.096c-0.435-1.41-0.446-2.935-0.446-4.468
			c0-0.823-0.63-1.232-1.115-1.787c-1.03-1.178-1.12-0.48-0.148-2.904c0.662-1.651-0.544-5.313-1.411-6.851
			c-1.627-2.883-0.524-3.334,0.222-6.329c0.69-2.766,1.203-2.032-1.04-3.425c-0.725-0.45-1.35-5.274-0.818-5.808
			c1.131-1.133,0.748-2.699,0.372-4.095c-0.26-0.964-1.716-4.176-1.337-4.914c0.66-1.288,3.51-0.747,2.972-2.755
			c-0.719-2.68-1.392-5.374-2.155-8.042c-1.873-6.548-2.895-9.158-10.402-9.158c-4.281,0-8.248-3.552-9.957-7.372
			c-0.096-0.215,2.28-3.501,2.155-5.287c-0.118-1.682,1.733-1.996,2.08-3.351c0.261-1.017-0.226-3.231,0.668-3.798
			c2.649-1.681,0.693-2.24,1.635-4.542c0.767-1.875,3.492-1.132,3.492-4.096c0-3.513-1.261-3.117,1.709-4.691
			c1.14-0.604-0.067-2.609,0-3.574c0.296-4.219,2.22-2.849-0.222-8.116c-1.181-2.546-2.526-3.595-2.526-6.776
			c0-1.944,1.102-3.692,1.932-5.361c2.082-4.184,2.321-7.78,2.155-12.361c-0.254-6.997-2.762-15.353-1.188-21.668
			c0.663-2.663-0.977-2.786-2.081-4.914c-2.748,1.637-5.729,3.101-8.734,4.228c-2.066,0.774-5.858,0.446-6.063-2.383
			c-0.147-2.022-1.097-2.588-1.902-4.229c-0.636-1.297-0.907-2.63-1.308-3.991c-0.426-1.449-3.173-2.173-4.339-3.276
			c-1.742-1.647-1.956-4.095-2.531-6.397l1.167-2.977l0.422-3.634l4.335-1.341c5.33-2.459,7.688-12.897,13.55-13.113
			c6.288-0.231,24.597-7.614,27.106-13.761c1.789-4.381,4.903-8.068,7.49-11.914c0.561-0.833-1.152-2.957-1.367-3.872
			c-0.529-2.255,1.197-4.002,2.14-5.897l18.309-40.09c2.629-5.005,7.737-5.775,12.365-4.349c3.494,1.077,2.733-5.387,3.982-7.327
			c3.323-5.156,4.06-12.029,8.323-16.56c2.122-2.255,0.832-3.431,0.832-6.195c0-3.869,1.941-8.572,3.21-12.212
			c4.369-3.747,10.255-1.539,7.966-9.888c-1.01-3.68-1.636-6.356,1.308-9.174c2.531-2.423-1.961-2.521-1.961-4.527
			c0-5.5,19.424-17.779,23.838-21.087c1.878-0.648,5.143-3.839,6.063-5.659c1.342-2.656-0.666-3.705,2.913-4.229
			c2.959-0.434,0.422-2.805,2.081-3.872c1.575-1.014,2.772,0.22,3.686-2.026c0.698-1.717,1.434-3.151,2.349-4.438
			c1.037-1.46,2.306-2.733,4.011-4.02c1.713-1.293,4.139-2.987,5.052-4.944c0.684-1.466-0.235-1.764-0.475-3.157
			c-0.383-2.224,2.272-2.319,1.664-4.766c-0.994-4.003,3.183-3.518,2.437-6.85c-0.624-2.43-1.307-4.739-1.307-7.327
			c0-4.758-1.264-5.191-5.826-5.539c-6.447-0.492-8.815-6.413-11.532-11.557c-3.039-6.578-7.927-14.75-8.619-21.981
			c-0.4-4.179-0.614-7.341-1.605-11.437c-0.497-2.052-2.239-4.359-3.269-6.255c-1.458-2.682-2.506-5.567-3.388-8.518l-19.32-40.984
			c-2.694-3.751-6.718-4.102-6.718-10.067c0-3.703-0.991-2.649-3.27-4.765c-1.672-1.553-1.036-2.963-1.664-5.004
			c-1.498-4.865-14.473-3.898-18.725-4.944v-0.179c2.359-0.671-0.243-6.986-1.129-8.22c-1.698-2.366-4.122-1.581-6.598-1.132
			c-2.811,0.51-0.67-3.233-2.378-4.944c-2.996-3.004,0.104-5.807-7.133-3.871l-3.091,0.953l-37.747-28.355
			c-2.558-2.049-5.269-2.589-7.906-4.229c-4.181-2.602-1.961-7.373-7.371-10.186c-4.011-2.085-6.91-4.652-9.808-7.982l-5.291-6.077
			c-0.243-0.28,2.89-2.042,3.448-3.097c0.77-1.458,2.466-6.765,0.238-7.625c-5.603-2.161-5.437-10.521-11.235-9.71
			c-7.064,0.988-8.057-12.314-11.651-12.569c-4.053-0.288-4.258-5.791-8.203-7.446c-1.349-0.565-3.109-0.38-4.28-1.191
			c-2.308-1.601,0.465-4.496-3.507-6.017c-2.899-1.109-3.78-1.178-4.934-4.289c-1.873-5.049-1.966-3.257-6.063-4.825
			c-5.985-2.291-3.371-2.483-1.367-7.327c1.924-2.662,1.257-5.604,3.983-8.339c3.65-3.661,8.384-6.187,12.305-9.591
			c3.559-3.09,8.283-11.631,8.739-16.202l5.172-11.795l37.272-0.238l44.108,9.531l20.924-6.314
			c6.887,0.289,12.787,6.024,18.309,4.527c5.099-1.382,1.84-6.589,8.976-6.076c7.531,0.542,24.27,0.248,30.257,4.528
			c1.6,1.144,4.424,4.229,6.241,4.229c4.168,0,9.67-1.194,13.672-2.382c3.466-0.421,6.878-2.547,10.522-3.098
			c3.921-0.592,9.55-3.037,13.397-3.952c-2.545-1.787-5.212-3.467-7.281-5.716c-1.421-1.544-2.915,0.045-4.607-0.745
			c-2.033-0.949-1.339-3.992-4.384-3.499c-2.537,0.41-3.24-3.07-4.829-4.096c-2.844-1.836-4.619,1.335-6.911-3.648
			c-1.836-3.993-4.002-5.506-6.167-9.085c-2.268-3.749-8.997-12.403-12.781-14.296c-6.457-3.232-8.04-6.595-9.511-13.627
			c-1.124-5.376-1.669-4.81-5.647-8.191c-1.393-1.183-1.233-3.58-1.709-5.137c-0.765-2.499-4.231-2.793-6.241-3.798
			c-3.504-1.751-5.128-3.908-6.316-7.371c-0.529-1.544-0.418-3.919,0-5.51c0.243-0.924,1.256-1.702,1.561-2.755
			c0.895-3.091-1.134-4.438-1.561-6.925c-0.276-1.606,0.249-3.369-0.298-4.914c-0.592-1.674-4.056-3.63-5.276-5.436
			c-2.252-3.335-2.124-6.868-3.269-10.424c-0.465-1.444-0.538-4,0.594-5.138c1.272-1.278,2.421-2.743,2.303-4.542
			c-0.203-3.1-0.711-8.871-2.898-11.244c-1.658-1.798-3.418-3.637-3.418-6.254c0-3.902,4.219-1.452,6.391-3.797
			c1.057-1.142-0.396-4.087,0.892-5.659c2.385-2.913-0.184-3.174-1.338-5.957c-0.885-2.134,0.439-6.683-1.486-8.117
			c-1.159-0.863-3.761-6.26-3.566-7.595c0.364-2.497,1.939-2.615,0.297-5.287c-1.168-1.901,0.31-5.15,1.561-6.627
			c2.449-2.894-5.013-4.825-0.743-6.85c1.97-0.934,0.341-2.859-0.075-4.542c-0.623-2.518,0.952-2.747,2.081-4.542
			c0.892-1.42-0.169-1.73,0-2.755c0.213-1.287,1.738-1.501,2.452-2.457c0.931-1.245,0.061-3.214,1.858-4.096
			c6.213-3.05,6.231-9.947,0.148-12.063c-1.839-0.64-5.22-11.667-4.607-13.552c0.727-2.234-1.983-6.212,0.669-7.297
			c2.049-0.838,3.726-0.822,1.709-3.35c-1.748-2.191-1.039-3.386,1.188-4.319c4.569-1.914,0.169-3.49-0.297-5.361
			c-0.349-1.402-0.982-2.743-1.338-4.096c-1.09-4.141-4.142,4.505-5.87-3.648c-0.584-2.756-1.55-5.21,1.338-6.999
			c2.886-1.788-2.048-3.947-1.189-6.18c0.682-1.773,3.094-0.43,4.384-1.191c1.788-1.056,0.9-3.872-1.189-3.872
			c-2.086,0-6.234-2.355-3.566-4.617c3.223-2.732-0.645-5.026-1.263-8.265c-1.666-8.736-7.505,2.625-12.484-1.117
			c-2.49-1.872-2.682-6.254-4.606-7.967c-4.36-3.881-2.039-4.903-1.784-9.159c0.081-1.354-1.51-3.447-1.189-4.319
			c1.265-3.428,1.886-2.659,0.538-6.551c0-3.058,3.612-4.483,1.171-7.15c-2.275-2.485,1.06-4.485-0.446-6.925
			c-0.992-1.607-2.363-2.723-3.195-4.393c-0.69-1.385,0.317-6.04-2.229-4.096c-4.305,3.288-0.364-6.336-0.52-7.148
			c-0.997-5.183-3.343-9.36-3.343-14.818c0-4.296-4.244-2.252-7.357-2.606c-4.288-0.488-0.698-6.74-3.79-7.297
			c-2.579-0.465-7.135,7.275-6.761-0.521c0.087-1.818,3.531-2.091,2.452-4.393c-0.78-1.663-3.522-1.206-4.904-0.893
			c-3.147,0.714-5.971-1.564-8.248-2.979c-2.179-1.355-0.426-2.462-1.263-3.947c-0.575-1.02-1.736,0.543-2.08,1.042
			c-2.785,4.041-2.904,1.407-4.087-1.266c-0.584-1.32-2.416-0.812-2.897-2.085c-0.59-1.559,0.717-4.54,1.795-5.412l-1.2-2.853
			c-0.568-2.266-1.648-3.325-3.641-4.542c-2.906-1.776-1.338-3.629,1.189-4.691c0.84-0.353,0.986-0.301,1.117-1.266l-11.443-22.339
			l-52.684-0.447l16.513,75.987c0.25,2.643,0.219,4.897-1.069,7.208c-1.023,1.836-3.336,2.129-1.427,4.825
			c1.167,1.646-0.832,2.946-0.832,4.766c0,2.006,3.413,7.066,4.993,8.161c3.018,2.092,6.253-0.969,9.273,1.132
			c2.786,1.937,3.262,0.986,5.706-0.596c2.787-1.804,6.657,3.581,9.273,1.191c1.576-1.44,2.935-0.744,4.399,0.06
			c1.511,0.829,3.965-0.538,6.241,0.477c2.058,2.885,2.337,3.473,6.004,3.634c2.229,0.097,0.425,3.119,0.594,4.408
			c0.367,2.795,5.885,3.142,5.885,7.803c0,1.906,1.981,1.794,3.388,2.085c2.586,0.536,2.567,3.623,3.626,5.539
			c1.88,3.4,2.25,0.734,3.745,0.179c3.448-1.28,3.321,0.711,4.815,2.204c2.82,2.82-3.031,3.444-3.031,6.076
			c2.849,3.975-1.962,2.503-1.962,4.766c0,1.063,3.59,4.677,2.14,5.004c-5.252,1.182-3.336,3.28-2.021,7.744
			c0.562,1.906,3.132,6.362,2.021,7.744c-1.835,2.28-1.721,1.917-0.713,4.467c0.953,2.409-3.377,3.998-4.339,5.897
			c-0.845,1.666-0.387,1.939-0.298,3.515c0.061,1.065-0.73,3.563-0.951,4.825c3.381,8.866-2.394,8.117-6.717,13.701
			c-2.135,2.759,4.13,1.036,4.815,2.026l6.301,9.114c2.726,3.942,1.279,10.06-0.535,13.999c-2.764,6.004-8.745,9.21-15.159,10.603
			c-1.73,1.85-3.199,4.18-4.993,5.898c-3.13,2.998-5.518-0.782-8.917,3.038c-4.768,5.361-10.565,9.588-17.239,11.973
			c-7.043,2.517-9.779,10.761-16.347,11.854c-2.166,0.496-5.689-1.727-7.728-2.502l-10.819-4.11c-3.183-1.21-6.226-3.641-9.868-2.74
			c-1.985,7.902-5.667,16.131-11.651,20.909c-1.546,1.234,0.333,3.46-1.605,4.527c-3.794,2.088-0.751,5.197-5.172,6.136
			c-2.759,0.587-5.393,5.758-5.588,8.34c0,4.282-4.294,1.87-7.133,3.038c-0.742,0.305-1.345,1.357-1.487,2.144
			c-0.441,2.439-5.274,1.716-3.27,5.063c1.785,2.983,3.567,9.217,0.714,12.212c-3.106,3.261-4.65,0.823-5.409,5.957
			c-0.31,2.094-4.14,1.027-5.231,3.217c-1.216,2.437,2.025,2.421,1.724,3.395c-0.215,0.693-1.259,2.193-2.229,3.379V1562.5
			l86.52,0.533c3.729,0.347,2.95,2.062,6.955,0.06c3.877-1.939,5.63-1.384,9.987-0.656c3.664,0.613,5.974,0.78,7.014,5.004
			c1.068,0,3.81-3.084,5.588-3.395l10.225-1.787c3.607-0.631,2.351-3.133,3.208-5.682c3.068,2.338,7.526,5.514,7.785,6.15
			c2.088,5.133,4.282,3.047,7.653,4.542c1.224,0.543,1.259,3.228,2.75,3.797c1.77,0.676,2.22-2.67,2.6-3.797
			c0.031-0.093,0.262-0.093,0.298,0c0.266,0.689,1.569,1.574,2.155,1.936c0.629,0.389-0.904,1.876-0.743,2.458
			c0.368,1.323,3.021-1.023,3.566,1.117c1.385,5.428,2.273,1.061,5.127,2.829c1.555,0.964,2.383,0.2,3.641-0.819
			c0.748-0.605,3.326-0.856,3.418-0.893c0.529-0.216-0.866-2.779-0.297-2.83c6.067-0.54,1.787,2.496,6.91,4.765
			c2.426,1.074-2.443,6.438-1.263,8.935c0.818,1.732,8.775,0.336,9.734-1.489c2.993-5.698,3.252-0.485,6.39,0.521
			c2.44,0.782,2.299,3.946,4.384,2.382c2.977-2.233,6.038,4.521,8.917,0.67c0.566-0.758-0.337-4.518,2.229-2.978
			c3.662,2.198,1.204-6.625,5.275-3.128c3.751,3.222,2.563-1.627,6.316-1.415c1.5,0.085,2.569,0.634,3.487,1.407
			c1.753,1.475,2.961,3.769,5.578,5.22c1.103,0.611,3.761,0.854,3.864,2.457c0.412,6.43,1.427,1.799,4.83,5.659
			c2.887,3.274,11.6-2.198,16.049-4.021c8.446-3.461,11.595,0.942,20.359,2.457c3.57,0.617,7.71,2.82,11.22,1.862
			c5.708-1.559,3.978,0.254,6.91,2.457c1.932,1.451,4.122-1.655,6.019,1.862c1.841,3.412,8.873,7.805,12.631,9.01
			c3.251,1.042,4.995,5.87,5.202,5.882c3.4,0.204,2.145-1.082,5.276,1.266c2.989,2.242,9.374-0.68,12.26,2.903
			c0.99,1.229,1.113,7.392,1.784,9.68c1.034,3.532,1.317,5.956,3.103,8.164c0.78-1.173,2.138-2.846,2.99-3.92
			c0.608-0.769,0.967-1.853,1.561-2.606c0.995-1.262,1.439-2.822,2.452-4.095c1.904-2.395,8.698,2.376,7.802-3.053
			c-0.441-2.675-2.34-5.291-2.453-8.042c-0.2-4.89-1.387-8.794-4.161-12.435c-1.782-2.34-2.244-9.972-3.938-10.872
			c-4.076-2.164-2.655-1.669-3.343-6.18c-0.692-4.533,3.221-4.897,2.823-8.414c-0.119-1.046-2.304-3.595-0.223-4.468
			c2.311-0.97,1.395-3.622,1.041-5.585c-0.682-3.772,0.939-2.764,1.115-5.882c0.3-5.329,6.732-0.785,9.14-0.894
			c3.146-0.142,3.4-3.67,5.795-4.542v-0.223l0,0C1085.773,1553.185,1084.104,1550.255,1084.104,1546.122z"/>
	</g>
	<polygon fill="#FCD116" points="557,937.992 593.339,1049.832 710.933,1049.832 615.797,1118.952 652.136,1230.791 557,1161.671 
		461.864,1230.791 498.203,1118.952 403.067,1049.832 520.661,1049.832 	"/>
</g>
</svg>
